# Blender 3.3.1
# www.blender.org
mtllib untitled.mtl
o drop.001
v 0.005049 0.003522 -0.009696
v 0.001566 -0.007955 -0.009655
v 0.000162 0.034648 0.000082
v 0.005416 -0.010720 -0.000576
v 0.011671 0.000635 -0.002681
v 0.010420 -0.003438 0.006927
v 0.006049 0.000847 0.010164
v -0.003809 -0.001105 0.012010
v -0.011056 0.001288 0.004070
v -0.009797 -0.007127 -0.000007
v -0.007972 0.001269 -0.009566
v -0.002428 -0.011293 0.003826
vn -0.0761 -0.9624 -0.2608
vn 0.6681 -0.2054 -0.7151
vn 0.7522 0.3021 -0.5856
vn 0.9244 0.2929 0.2445
vn 0.7422 0.3070 0.5958
vn 0.2458 -0.4121 0.8774
vn 0.1172 0.3025 0.9459
vn -0.7373 -0.3807 0.5581
vn -0.6566 0.3033 0.6906
vn -0.9746 -0.0391 -0.2204
vn -0.3354 -0.8865 -0.3189
vn -0.5560 -0.5690 -0.6059
vn -0.0598 0.2906 -0.9550
vn -0.0099 -0.0006 -1.0000
vn 0.7375 -0.4920 -0.4627
vn 0.8641 -0.4939 -0.0969
vn 0.1796 -0.6012 0.7787
vn 0.3497 -0.7780 0.5219
vn -0.6083 -0.5456 0.5765
vn -0.9338 0.2887 -0.2116
vt 0.674133 0.584330
vt 0.733923 0.305934
vt 0.777305 0.928877
vt 0.977088 0.946551
vt 0.519615 0.163581
vt 0.544397 0.535892
vt 0.428647 0.415635
vt 0.342693 0.538442
vt 0.215879 0.476159
vt 0.058897 0.536754
vt 1.000058 0.562680
vt 0.968468 0.356680
vt 0.027801 0.308491
vt 0.859764 0.529784
vt 0.878880 0.090880
vt 0.136121 0.161500
s 0
usemtl Material.038
f 2/2/1 4/5/1 12/15/1
f 2/2/2 1/1/2 5/6/2
f 3/3/3 5/6/3 1/1/3
f 3/3/4 6/7/4 5/6/4
f 6/7/5 3/3/5 7/8/5
f 7/8/6 8/9/6 6/7/6
f 3/3/7 8/9/7 7/8/7
f 9/10/8 10/13/8 8/9/8
f 3/3/9 9/10/9 8/9/9
f 9/11/10 11/14/10 10/12/10
f 12/15/11 10/12/11 2/2/11
f 10/12/12 11/14/12 2/2/12
f 11/14/13 3/3/13 1/1/13
f 11/14/14 1/1/14 2/2/14
f 4/5/15 2/2/15 5/6/15
f 4/5/16 5/6/16 6/7/16
f 6/7/17 8/9/17 12/16/17
f 6/7/18 12/16/18 4/5/18
f 8/9/19 10/13/19 12/16/19
f 11/14/20 9/11/20 3/4/20
